<svg width="225" height="41" viewBox="0 0 225 41" fill="none" xmlns="http://www.w3.org/2000/svg">
<rect width="15.0301" height="38.6888" rx="7.51507" transform="matrix(0.846243 0.532796 -0.527046 0.849837 18.3696 0.243164)" fill="#159990"/>
<path d="M29.082 6.21696C26.953 2.78397 22.4558 1.74574 19.0374 3.89801V3.89801C15.489 6.13204 14.5211 10.8983 16.9173 14.3373L18.3814 16.4387L21.9683 23.1108L28.991 34.5323C31.1667 38.0708 35.7916 39.1479 39.3067 36.9348V36.9348C42.8122 34.7277 43.8841 30.0847 41.7009 26.5642L29.082 6.21696Z" fill="#0AD0C3"/>
<path fill-rule="evenodd" clip-rule="evenodd" d="M36.5997 1.70312L21.4409 1.70313C15.2431 1.70313 11.9321 10.5993 11.9321 10.5993C11.9321 10.5993 14.7876 12.7642 16.3468 14.4358C19.0816 17.3677 21.8651 23.1095 21.8651 23.1095C21.8651 23.1095 25.1339 16.5482 27.9352 12.8233C30.2493 9.74638 34.05 6.20415 36.5997 3.96015V1.70312Z" fill="url(#paint0_linear_1497_13038)"/>
<g filter="url(#filter0_f_1497_13038)">
<path d="M22.5273 21.6848L23.3064 20.6383C23.3388 20.5947 23.3672 20.5483 23.3912 20.4996L25.4102 16.4027L27.0862 13.682C27.1105 13.6425 27.1379 13.605 27.1681 13.5697L29.9771 10.2866" stroke="#159990" stroke-width="3.57697" stroke-linecap="round"/>
</g>
<g filter="url(#filter1_f_1497_13038)">
<path d="M20.8652 22.2402L19.4857 19.7382L17.2783 16.4021L15.071 13.9001L13.4306 12.4539C13.1033 12.1653 13.0321 11.6826 13.2621 11.3117L14.2433 9.72998" stroke="#159990" stroke-width="3.57697" stroke-linecap="round"/>
</g>
<path fill-rule="evenodd" clip-rule="evenodd" d="M36.5997 1.70312L21.4409 1.70313C15.2431 1.70313 11.9321 10.5993 11.9321 10.5993C11.9321 10.5993 14.7876 12.7642 16.3468 14.4358C19.0816 17.3677 21.8651 23.1095 21.8651 23.1095C21.8651 23.1095 25.1339 16.5482 27.9352 12.8233C30.2829 9.70173 34.0627 6.18057 36.5997 3.95261V1.70312Z" fill="url(#paint1_linear_1497_13038)"/>
<path fill-rule="evenodd" clip-rule="evenodd" d="M30.9715 9.30255L26.2539 1.70508L36.6235 1.70508V4.01736C34.9979 5.42594 32.8898 7.33002 30.9715 9.30255Z" fill="url(#paint2_linear_1497_13038)"/>
<path d="M170.279 14.5255H166.647V30.9569H162.552V14.5255H160.238V11.189H162.552V9.78977C162.552 7.5176 163.146 5.86728 164.333 4.83882C165.543 3.78644 167.43 3.26025 169.994 3.26025V6.66852C168.76 6.66852 167.893 6.9077 167.395 7.38605C166.896 7.84049 166.647 8.64173 166.647 9.78977V11.189H170.279V14.5255Z" fill="#1E5A9F"/>
<path d="M155.436 8.57244C154.7 8.57244 154.083 8.3213 153.585 7.81903C153.086 7.31676 152.837 6.6949 152.837 5.95346C152.837 5.21201 153.086 4.59015 153.585 4.08788C154.083 3.58561 154.7 3.33447 155.436 3.33447C156.148 3.33447 156.754 3.58561 157.252 4.08788C157.751 4.59015 158 5.21201 158 5.95346C158 6.6949 157.751 7.31676 157.252 7.81903C156.754 8.3213 156.148 8.57244 155.436 8.57244ZM157.43 11.1914V30.9594H153.371V11.1914H157.43Z" fill="#1E5A9F"/>
<path d="M128.592 20.9836C128.592 18.9985 128.996 17.2405 129.803 15.7098C130.634 14.1791 131.749 12.9951 133.15 12.158C134.574 11.297 136.153 10.8665 137.886 10.8665C139.168 10.8665 140.426 11.1535 141.66 11.7275C142.918 12.2776 143.915 13.019 144.651 13.9518V4.40869H148.746V30.9573H144.651V27.9795C143.986 28.9363 143.061 29.7255 141.874 30.3474C140.71 30.9693 139.369 31.2802 137.85 31.2802C136.141 31.2802 134.574 30.8497 133.15 29.9886C131.749 29.1037 130.634 27.8839 129.803 26.3292C128.996 24.7507 128.592 22.9688 128.592 20.9836ZM144.651 21.0554C144.651 19.6921 144.366 18.5082 143.796 17.5036C143.25 16.4991 142.526 15.7337 141.624 15.2075C140.722 14.6813 139.749 14.4182 138.705 14.4182C137.66 14.4182 136.687 14.6813 135.785 15.2075C134.883 15.7098 134.147 16.4632 133.577 17.4677C133.031 18.4484 132.758 19.6203 132.758 20.9836C132.758 22.3469 133.031 23.5428 133.577 24.5713C134.147 25.5997 134.883 26.389 135.785 26.9391C136.711 27.4653 137.684 27.7284 138.705 27.7284C139.749 27.7284 140.722 27.4653 141.624 26.9391C142.526 26.4129 143.25 25.6476 143.796 24.643C144.366 23.6146 144.651 22.4187 144.651 21.0554Z" fill="#1E5A9F"/>
<path d="M121.057 14.0587C121.651 13.0542 122.434 12.2769 123.407 11.7268C124.404 11.1527 125.579 10.8657 126.932 10.8657V15.0991H125.9C124.309 15.0991 123.099 15.5057 122.268 16.3189C121.461 17.1321 121.057 18.5433 121.057 20.5524V30.9566H116.998V11.1886H121.057V14.0587Z" fill="#1E5A9F"/>
<path d="M103.521 31.2794C101.669 31.2794 99.9958 30.8609 98.5003 30.0238C97.0048 29.1627 95.8298 27.9668 94.9752 26.4361C94.1206 24.8815 93.6934 23.0876 93.6934 21.0546C93.6934 19.0456 94.1325 17.2637 95.0108 15.709C95.8891 14.1544 97.0879 12.9585 98.6071 12.1214C100.126 11.2843 101.824 10.8657 103.699 10.8657C105.574 10.8657 107.271 11.2843 108.791 12.1214C110.31 12.9585 111.509 14.1544 112.387 15.709C113.265 17.2637 113.704 19.0456 113.704 21.0546C113.704 23.0637 113.253 24.8456 112.351 26.4002C111.449 27.9549 110.215 29.1627 108.648 30.0238C107.105 30.8609 105.396 31.2794 103.521 31.2794ZM103.521 27.7277C104.565 27.7277 105.539 27.4765 106.441 26.9743C107.366 26.472 108.114 25.7186 108.684 24.714C109.254 23.7095 109.538 22.4897 109.538 21.0546C109.538 19.6196 109.265 18.4117 108.719 17.4311C108.173 16.4266 107.449 15.6732 106.547 15.1709C105.645 14.6686 104.672 14.4175 103.628 14.4175C102.583 14.4175 101.61 14.6686 100.708 15.1709C99.8296 15.6732 99.1293 16.4266 98.6071 17.4311C98.0849 18.4117 97.8238 19.6196 97.8238 21.0546C97.8238 23.1833 98.3579 24.8336 99.4261 26.0056C100.518 27.1536 101.883 27.7277 103.521 27.7277Z" fill="#1E5A9F"/>
<path d="M92.109 14.5255H88.4771V30.9569H84.3823V14.5255H82.0679V11.189H84.3823V9.78977C84.3823 7.5176 84.9758 5.86728 86.1627 4.83882C87.3733 3.78644 89.2605 3.26025 91.8241 3.26025V6.66852C90.5898 6.66852 89.7233 6.9077 89.2248 7.38605C88.7263 7.84049 88.4771 8.64173 88.4771 9.78977V11.189H92.109V14.5255Z" fill="#1E5A9F"/>
<path d="M81.004 14.5255H77.3721V30.9569H73.2773V14.5255H70.9629V11.189H73.2773V9.78977C73.2773 7.5176 73.8708 5.86728 75.0577 4.83882C76.2683 3.78644 78.1555 3.26025 80.7192 3.26025V6.66852C79.4848 6.66852 78.6184 6.9077 78.1199 7.38605C77.6214 7.84049 77.3721 8.64173 77.3721 9.78977V11.189H81.004V14.5255Z" fill="#1E5A9F"/>
<path d="M48.0073 21.0293C48.0073 19.0441 48.4109 17.2862 49.218 15.7554C50.0488 14.2247 51.1645 13.0408 52.565 12.2037C53.9893 11.3426 55.556 10.9121 57.2651 10.9121C58.8081 10.9121 60.1493 11.223 61.2887 11.8449C62.4518 12.4428 63.3776 13.1962 64.066 14.1051V11.235H68.1608V31.0029H64.066V28.0611C63.3776 28.9939 62.44 29.7712 61.2531 30.393C60.0662 31.0149 58.7131 31.3258 57.1939 31.3258C55.5085 31.3258 53.9655 30.8953 52.565 30.0343C51.1645 29.1493 50.0488 27.9295 49.218 26.3749C48.4109 24.7963 48.0073 23.0144 48.0073 21.0293ZM64.066 21.101C64.066 19.7377 63.7812 18.5538 63.2114 17.5493C62.6655 16.5447 61.9415 15.7794 61.0394 15.2532C60.1374 14.727 59.1641 14.4639 58.1197 14.4639C57.0752 14.4639 56.1019 14.727 55.1999 15.2532C54.2979 15.7554 53.562 16.5088 52.9923 17.5134C52.4463 18.494 52.1733 19.666 52.1733 21.0293C52.1733 22.3926 52.4463 23.5885 52.9923 24.6169C53.562 25.6454 54.2979 26.4347 55.1999 26.9848C56.1257 27.511 57.0989 27.7741 58.1197 27.7741C59.1641 27.7741 60.1374 27.511 61.0394 26.9848C61.9415 26.4586 62.6655 25.6932 63.2114 24.6887C63.7812 23.6602 64.066 22.4643 64.066 21.101Z" fill="#1E5A9F"/>
<path d="M176.821 10.8696L182.554 27.2293L180.204 31.7139L172.228 10.8696H176.821ZM172.691 35.3386V31.7151H175.29C175.86 31.7151 176.358 31.6433 176.786 31.4998C177.213 31.3802 177.593 31.1411 177.925 30.7823C178.281 30.4235 178.578 29.8973 178.815 29.2037L186.115 10.8696H190.601L181.984 31.0693C181.343 32.6957 180.536 33.8796 179.563 34.6211C178.59 35.3625 177.379 35.7333 175.931 35.7333C175.314 35.7333 174.732 35.6974 174.186 35.6256C173.664 35.5778 173.166 35.4821 172.691 35.3386Z" fill="#1E5A9F"/>
<path d="M222.245 8.57244C221.509 8.57244 220.892 8.3213 220.393 7.81903C219.895 7.31676 219.646 6.6949 219.646 5.95346C219.646 5.21201 219.895 4.59015 220.393 4.08788C220.892 3.58561 221.509 3.33447 222.245 3.33447C222.957 3.33447 223.562 3.58561 224.061 4.08788C224.559 4.59015 224.809 5.21201 224.809 5.95346C224.809 6.6949 224.559 7.31676 224.061 7.81903C223.562 8.3213 222.957 8.57244 222.245 8.57244ZM224.239 11.1914V30.9594H220.18V11.1914H224.239Z" fill="#1E5A9F"/>
<path d="M196.711 21.0293C196.711 19.0441 197.114 17.2862 197.922 15.7554C198.752 14.2247 199.868 13.0408 201.269 12.2037C202.693 11.3426 204.26 10.9121 205.969 10.9121C207.512 10.9121 208.853 11.223 209.992 11.8449C211.155 12.4428 212.081 13.1962 212.77 14.1051V11.235H216.864V31.0029H212.77V28.0611C212.081 28.9939 211.144 29.7712 209.957 30.393C208.77 31.0149 207.417 31.3258 205.898 31.3258C204.212 31.3258 202.669 30.8953 201.269 30.0343C199.868 29.1493 198.752 27.9295 197.922 26.3749C197.114 24.7963 196.711 23.0144 196.711 21.0293ZM212.77 21.101C212.77 19.7377 212.485 18.5538 211.915 17.5493C211.369 16.5447 210.645 15.7794 209.743 15.2532C208.841 14.727 207.868 14.4639 206.823 14.4639C205.779 14.4639 204.806 14.727 203.904 15.2532C203.001 15.7554 202.266 16.5088 201.696 17.5134C201.15 18.494 200.877 19.666 200.877 21.0293C200.877 22.3926 201.15 23.5885 201.696 24.6169C202.266 25.6454 203.001 26.4347 203.904 26.9848C204.829 27.511 205.803 27.7741 206.823 27.7741C207.868 27.7741 208.841 27.511 209.743 26.9848C210.645 26.4586 211.369 25.6932 211.915 24.6887C212.485 23.6602 212.77 22.4643 212.77 21.101Z" fill="#1E5A9F"/>
<ellipse cx="191.306" cy="28.6438" rx="2.67737" ry="2.67746" fill="#1E5A9F"/>
<defs>
<filter id="filter0_f_1497_13038" x="18.056" y="5.81532" width="16.3923" height="20.341" filterUnits="userSpaceOnUse" color-interpolation-filters="sRGB">
<feFlood flood-opacity="0" result="BackgroundImageFix"/>
<feBlend mode="normal" in="SourceGraphic" in2="BackgroundImageFix" result="shape"/>
<feGaussianBlur stdDeviation="1.34137" result="effect1_foregroundBlur_1497_13038"/>
</filter>
<filter id="filter1_f_1497_13038" x="8.65662" y="5.25868" width="16.6799" height="21.4529" filterUnits="userSpaceOnUse" color-interpolation-filters="sRGB">
<feFlood flood-opacity="0" result="BackgroundImageFix"/>
<feBlend mode="normal" in="SourceGraphic" in2="BackgroundImageFix" result="shape"/>
<feGaussianBlur stdDeviation="1.34137" result="effect1_foregroundBlur_1497_13038"/>
</filter>
<linearGradient id="paint0_linear_1497_13038" x1="13.3117" y1="10.5993" x2="37.3459" y2="3.47066" gradientUnits="userSpaceOnUse">
<stop stop-color="#1E5A9F"/>
<stop offset="1" stop-color="#1978E6"/>
</linearGradient>
<linearGradient id="paint1_linear_1497_13038" x1="13.3117" y1="10.5993" x2="37.3459" y2="3.47066" gradientUnits="userSpaceOnUse">
<stop stop-color="#1E5A9F"/>
<stop offset="1" stop-color="#1978E6"/>
</linearGradient>
<linearGradient id="paint2_linear_1497_13038" x1="12.4803" y1="10.9392" x2="37.4351" y2="3.53487" gradientUnits="userSpaceOnUse">
<stop stop-color="#FFCA34"/>
<stop offset="1" stop-color="#D6A413"/>
</linearGradient>
</defs>
</svg>
