<svg width="55" height="55" viewBox="0 0 55 55" fill="none" xmlns="http://www.w3.org/2000/svg">
<rect width="55" height="55" rx="12" fill="white"/>
<path d="M21.5416 44.25L28 35.3942L34.4584 44.25H21.5416Z" stroke="#0AD0C3" stroke-width="4"/>
<path d="M11 28H45" stroke="#1D5BA3" stroke-width="4" stroke-linecap="round"/>
<circle cx="16.5" cy="18.5" r="4.5" stroke="#1D5BA3" stroke-width="4"/>
<mask id="path-5-outside-1_593_2775" maskUnits="userSpaceOnUse" x="36" y="11" width="9" height="15" fill="black">
<rect fill="white" x="36" y="11" width="9" height="15"/>
<path d="M40.2757 23.1425C39.6106 23.1425 39.012 23.0618 38.4799 22.9002C37.9478 22.7292 37.4395 22.4347 36.9549 22.0166C36.8314 21.9121 36.7364 21.7933 36.6699 21.6603C36.6033 21.5273 36.5701 21.3942 36.5701 21.2612C36.5701 21.0427 36.6461 20.8527 36.7981 20.6911C36.9597 20.5201 37.1592 20.4346 37.3967 20.4346C37.5773 20.4346 37.7388 20.4916 37.8813 20.6056C38.2424 20.9002 38.5987 21.1235 38.9502 21.2755C39.3113 21.4275 39.7531 21.5035 40.2757 21.5035C40.6272 21.5035 40.9503 21.4513 41.2448 21.3467C41.5394 21.2327 41.7769 21.0854 41.9574 20.9049C42.138 20.7149 42.2282 20.5011 42.2282 20.2636C42.2282 19.9785 42.1427 19.7362 41.9717 19.5367C41.8007 19.3372 41.5394 19.1709 41.1878 19.0379C40.8363 18.8953 40.3897 18.7861 39.8481 18.7101C39.335 18.6341 38.8837 18.52 38.4941 18.368C38.1046 18.2065 37.7768 18.007 37.5107 17.7694C37.2542 17.5224 37.0594 17.2373 36.9264 16.9143C36.7934 16.5817 36.7269 16.2112 36.7269 15.8026C36.7269 15.185 36.8836 14.6577 37.1972 14.2206C37.5202 13.7835 37.9526 13.451 38.4941 13.2229C39.0357 12.9949 39.6343 12.8809 40.2899 12.8809C40.9075 12.8809 41.4776 12.9759 42.0002 13.1659C42.5323 13.3465 42.9646 13.5793 43.2972 13.8643C43.5727 14.0828 43.7105 14.3346 43.7105 14.6197C43.7105 14.8287 43.6297 15.0187 43.4682 15.1898C43.3067 15.3608 43.1166 15.4463 42.8981 15.4463C42.7556 15.4463 42.6273 15.4035 42.5133 15.318C42.3613 15.185 42.157 15.0615 41.9004 14.9475C41.6439 14.8239 41.3731 14.7242 41.0881 14.6482C40.803 14.5627 40.537 14.5199 40.2899 14.5199C39.8814 14.5199 39.5346 14.5722 39.2495 14.6767C38.974 14.7812 38.7649 14.9237 38.6224 15.1042C38.4799 15.2848 38.4086 15.4938 38.4086 15.7313C38.4086 16.0164 38.4894 16.2539 38.6509 16.444C38.8219 16.6245 39.0642 16.7718 39.3778 16.8858C39.6913 16.9903 40.0666 17.0853 40.5037 17.1708C41.0738 17.2753 41.5726 17.3989 42.0002 17.5414C42.4373 17.6839 42.7983 17.8692 43.0834 18.0972C43.3684 18.3158 43.5822 18.596 43.7247 18.9381C43.8673 19.2707 43.9385 19.6792 43.9385 20.1638C43.9385 20.7814 43.7675 21.3135 43.4254 21.7601C43.0834 22.2066 42.6321 22.5487 42.0715 22.7862C41.5204 23.0238 40.9218 23.1425 40.2757 23.1425ZM41.3018 23.9121C41.3018 24.1592 41.2163 24.3635 41.0453 24.525C40.8838 24.696 40.6795 24.7815 40.4325 24.7815C40.1949 24.7815 39.9954 24.696 39.8339 24.525C39.6723 24.3635 39.5916 24.1592 39.5916 23.9121V12.4533C39.5916 12.2063 39.6723 12.002 39.8339 11.8405C40.0049 11.6694 40.2139 11.5839 40.461 11.5839C40.708 11.5839 40.9075 11.6694 41.0596 11.8405C41.2211 12.002 41.3018 12.2063 41.3018 12.4533V23.9121Z"/>
</mask>
<path d="M40.2757 23.1425C39.6106 23.1425 39.012 23.0618 38.4799 22.9002C37.9478 22.7292 37.4395 22.4347 36.9549 22.0166C36.8314 21.9121 36.7364 21.7933 36.6699 21.6603C36.6033 21.5273 36.5701 21.3942 36.5701 21.2612C36.5701 21.0427 36.6461 20.8527 36.7981 20.6911C36.9597 20.5201 37.1592 20.4346 37.3967 20.4346C37.5773 20.4346 37.7388 20.4916 37.8813 20.6056C38.2424 20.9002 38.5987 21.1235 38.9502 21.2755C39.3113 21.4275 39.7531 21.5035 40.2757 21.5035C40.6272 21.5035 40.9503 21.4513 41.2448 21.3467C41.5394 21.2327 41.7769 21.0854 41.9574 20.9049C42.138 20.7149 42.2282 20.5011 42.2282 20.2636C42.2282 19.9785 42.1427 19.7362 41.9717 19.5367C41.8007 19.3372 41.5394 19.1709 41.1878 19.0379C40.8363 18.8953 40.3897 18.7861 39.8481 18.7101C39.335 18.6341 38.8837 18.52 38.4941 18.368C38.1046 18.2065 37.7768 18.007 37.5107 17.7694C37.2542 17.5224 37.0594 17.2373 36.9264 16.9143C36.7934 16.5817 36.7269 16.2112 36.7269 15.8026C36.7269 15.185 36.8836 14.6577 37.1972 14.2206C37.5202 13.7835 37.9526 13.451 38.4941 13.2229C39.0357 12.9949 39.6343 12.8809 40.2899 12.8809C40.9075 12.8809 41.4776 12.9759 42.0002 13.1659C42.5323 13.3465 42.9646 13.5793 43.2972 13.8643C43.5727 14.0828 43.7105 14.3346 43.7105 14.6197C43.7105 14.8287 43.6297 15.0187 43.4682 15.1898C43.3067 15.3608 43.1166 15.4463 42.8981 15.4463C42.7556 15.4463 42.6273 15.4035 42.5133 15.318C42.3613 15.185 42.157 15.0615 41.9004 14.9475C41.6439 14.8239 41.3731 14.7242 41.0881 14.6482C40.803 14.5627 40.537 14.5199 40.2899 14.5199C39.8814 14.5199 39.5346 14.5722 39.2495 14.6767C38.974 14.7812 38.7649 14.9237 38.6224 15.1042C38.4799 15.2848 38.4086 15.4938 38.4086 15.7313C38.4086 16.0164 38.4894 16.2539 38.6509 16.444C38.8219 16.6245 39.0642 16.7718 39.3778 16.8858C39.6913 16.9903 40.0666 17.0853 40.5037 17.1708C41.0738 17.2753 41.5726 17.3989 42.0002 17.5414C42.4373 17.6839 42.7983 17.8692 43.0834 18.0972C43.3684 18.3158 43.5822 18.596 43.7247 18.9381C43.8673 19.2707 43.9385 19.6792 43.9385 20.1638C43.9385 20.7814 43.7675 21.3135 43.4254 21.7601C43.0834 22.2066 42.6321 22.5487 42.0715 22.7862C41.5204 23.0238 40.9218 23.1425 40.2757 23.1425ZM41.3018 23.9121C41.3018 24.1592 41.2163 24.3635 41.0453 24.525C40.8838 24.696 40.6795 24.7815 40.4325 24.7815C40.1949 24.7815 39.9954 24.696 39.8339 24.525C39.6723 24.3635 39.5916 24.1592 39.5916 23.9121V12.4533C39.5916 12.2063 39.6723 12.002 39.8339 11.8405C40.0049 11.6694 40.2139 11.5839 40.461 11.5839C40.708 11.5839 40.9075 11.6694 41.0596 11.8405C41.2211 12.002 41.3018 12.2063 41.3018 12.4533V23.9121Z" fill="#0AD0C3"/>
<path d="M38.4799 22.9002L38.3881 23.1859L38.3928 23.1873L38.4799 22.9002ZM36.9549 22.0166L37.1509 21.7894L37.1487 21.7876L36.9549 22.0166ZM36.7981 20.6911L36.58 20.4851L36.5797 20.4855L36.7981 20.6911ZM37.8813 20.6056L38.0709 20.3731L38.0687 20.3714L37.8813 20.6056ZM38.9502 21.2755L38.8311 21.5508L38.8338 21.552L38.9502 21.2755ZM41.2448 21.3467L41.3452 21.6296L41.3531 21.6265L41.2448 21.3467ZM41.9574 20.9049L42.1697 21.1171L42.1749 21.1115L41.9574 20.9049ZM41.9717 19.5367L42.1995 19.3415L42.1995 19.3415L41.9717 19.5367ZM41.1878 19.0379L41.0751 19.316L41.0817 19.3185L41.1878 19.0379ZM39.8481 18.7101L39.8041 19.0068L39.8064 19.0072L39.8481 18.7101ZM38.4941 18.368L38.3792 18.6452L38.3851 18.6475L38.4941 18.368ZM37.5107 17.7694L37.3025 17.9857L37.3109 17.9932L37.5107 17.7694ZM36.9264 16.9143L36.6478 17.0257L36.649 17.0285L36.9264 16.9143ZM37.1972 14.2206L36.9559 14.0423L36.9534 14.0457L37.1972 14.2206ZM38.4941 13.2229L38.6106 13.4994L38.6106 13.4994L38.4941 13.2229ZM42.0002 13.1659L41.8977 13.4479L41.9038 13.45L42.0002 13.1659ZM43.2972 13.8643L43.1018 14.0922L43.1107 14.0993L43.2972 13.8643ZM43.4682 15.1898L43.6863 15.3957L43.6863 15.3957L43.4682 15.1898ZM42.5133 15.318L42.3157 15.5438L42.3242 15.5512L42.3333 15.558L42.5133 15.318ZM41.9004 14.9475L41.7702 15.2179L41.7786 15.2216L41.9004 14.9475ZM41.0881 14.6482L41.0018 14.9357L41.0108 14.938L41.0881 14.6482ZM39.2495 14.6767L39.1462 14.395L39.1431 14.3962L39.2495 14.6767ZM38.6224 15.1042L38.387 14.9183L38.6224 15.1042ZM38.6509 16.444L38.4223 16.6383L38.4276 16.6444L38.4331 16.6503L38.6509 16.444ZM39.3778 16.8858L39.2752 17.1678L39.2829 17.1704L39.3778 16.8858ZM40.5037 17.1708L40.4461 17.4653L40.4496 17.4659L40.5037 17.1708ZM42.0002 17.5414L41.9053 17.826L41.9072 17.8266L42.0002 17.5414ZM43.0834 18.0972L42.8959 18.3315L42.9008 18.3353L43.0834 18.0972ZM43.7247 18.9381L43.4478 19.0535L43.449 19.0563L43.7247 18.9381ZM43.4254 21.7601L43.1873 21.5776L43.1873 21.5776L43.4254 21.7601ZM42.0715 22.7862L41.9544 22.51L41.9527 22.5107L42.0715 22.7862ZM41.0453 24.525L40.8393 24.3069L40.8331 24.3128L40.8272 24.319L41.0453 24.525ZM39.8339 24.525L40.0521 24.3189L40.046 24.3129L39.8339 24.525ZM39.8339 11.8405L40.046 12.0526L40.046 12.0526L39.8339 11.8405ZM41.0596 11.8405L40.8353 12.0398L40.8412 12.0464L40.8474 12.0526L41.0596 11.8405ZM40.2757 22.8425C39.6345 22.8425 39.066 22.7646 38.567 22.6132L38.3928 23.1873C38.958 23.3589 39.5866 23.4425 40.2757 23.4425V22.8425ZM38.5717 22.6146C38.0831 22.4576 37.6094 22.185 37.1509 21.7894L36.7589 22.2437C37.2696 22.6843 37.8126 23.0008 38.3881 23.1858L38.5717 22.6146ZM37.1487 21.7876C37.0534 21.707 36.985 21.6197 36.9382 21.5261L36.4015 21.7945C36.4878 21.9669 36.6093 22.1172 36.7611 22.2456L37.1487 21.7876ZM36.9382 21.5261C36.89 21.4298 36.8701 21.3424 36.8701 21.2612H36.2701C36.2701 21.4461 36.3167 21.6247 36.4015 21.7945L36.9382 21.5261ZM36.8701 21.2612C36.8701 21.1204 36.9161 21.0035 37.0166 20.8967L36.5797 20.4855C36.3761 20.7018 36.2701 20.965 36.2701 21.2612H36.8701ZM37.0162 20.8971C37.1205 20.7868 37.2408 20.7346 37.3967 20.7346V20.1346C37.0776 20.1346 36.7988 20.2535 36.58 20.4851L37.0162 20.8971ZM37.3967 20.7346C37.5083 20.7346 37.6039 20.7679 37.6939 20.8399L38.0687 20.3714C37.8736 20.2153 37.6462 20.1346 37.3967 20.1346V20.7346ZM37.6917 20.8381C38.0697 21.1465 38.4494 21.3858 38.8311 21.5508L39.0693 21.0001C38.7479 20.8611 38.415 20.6539 38.0709 20.3732L37.6917 20.8381ZM38.8338 21.552C39.2418 21.7238 39.7257 21.8035 40.2757 21.8035V21.2035C39.7805 21.2035 39.3808 21.1312 39.0666 20.999L38.8338 21.552ZM40.2757 21.8035C40.6572 21.8035 41.0146 21.7467 41.3452 21.6295L41.1445 21.064C40.8859 21.1558 40.5973 21.2035 40.2757 21.2035V21.8035ZM41.3531 21.6265C41.6776 21.5009 41.9534 21.3332 42.1696 21.117L41.7453 20.6928C41.6004 20.8377 41.4011 20.9645 41.1365 21.067L41.3531 21.6265ZM42.1749 21.1115C42.4025 20.872 42.5282 20.5863 42.5282 20.2636H41.9282C41.9282 20.416 41.8735 20.5577 41.7399 20.6983L42.1749 21.1115ZM42.5282 20.2636C42.5282 19.9134 42.4212 19.6001 42.1995 19.3415L41.7439 19.7319C41.8643 19.8723 41.9282 20.0436 41.9282 20.2636H42.5282ZM42.1995 19.3415C41.9846 19.0908 41.6736 18.9009 41.294 18.7573L41.0817 19.3185C41.4052 19.4409 41.6167 19.5835 41.7439 19.7319L42.1995 19.3415ZM41.3005 18.7598C40.9186 18.605 40.446 18.491 39.8898 18.413L39.8064 19.0072C40.3334 19.0811 40.7539 19.1857 41.0751 19.3159L41.3005 18.7598ZM39.8921 18.4133C39.3962 18.3398 38.9675 18.2307 38.6032 18.0885L38.3851 18.6475C38.7999 18.8094 39.2739 18.9283 39.8041 19.0068L39.8921 18.4133ZM38.6091 18.0909C38.2451 17.94 37.9474 17.7571 37.7105 17.5456L37.3109 17.9932C37.6062 18.2568 37.9641 18.473 38.3792 18.6451L38.6091 18.0909ZM37.7188 17.5533C37.4916 17.3345 37.3207 17.084 37.2038 16.8001L36.649 17.0285C36.7981 17.3907 37.0168 17.7103 37.3026 17.9855L37.7188 17.5533ZM37.2049 16.8029C37.0879 16.5104 37.0269 16.1783 37.0269 15.8026H36.4269C36.4269 16.244 36.4988 16.6531 36.6479 17.0257L37.2049 16.8029ZM37.0269 15.8026C37.0269 15.2381 37.1692 14.7743 37.441 14.3955L36.9534 14.0457C36.5981 14.5411 36.4269 15.1319 36.4269 15.8026H37.0269ZM37.4384 14.3989C37.7269 14.0087 38.1145 13.7083 38.6106 13.4994L38.3777 12.9465C37.7906 13.1936 37.3136 13.5584 36.9559 14.0423L37.4384 14.3989ZM38.6106 13.4994C39.1113 13.2886 39.6697 13.1809 40.2899 13.1809V12.5809C39.599 12.5809 38.9602 12.7012 38.3777 12.9465L38.6106 13.4994ZM40.2899 13.1809C40.8764 13.1809 41.4114 13.271 41.8977 13.4479L42.1027 12.884C41.5439 12.6808 40.9386 12.5809 40.2899 12.5809V13.1809ZM41.9038 13.45C42.4095 13.6216 42.8054 13.8379 43.1019 14.0921L43.4924 13.6365C43.1239 13.3206 42.6551 13.0713 42.0966 12.8818L41.9038 13.45ZM43.1107 14.0993C43.333 14.2756 43.4105 14.4475 43.4105 14.6197H44.0105C44.0105 14.2218 43.8124 13.89 43.4836 13.6292L43.1107 14.0993ZM43.4105 14.6197C43.4105 14.7423 43.3662 14.8609 43.2501 14.9838L43.6863 15.3957C43.8933 15.1766 44.0105 14.9151 44.0105 14.6197H43.4105ZM43.2501 14.9838C43.1404 15.0999 43.0273 15.1463 42.8981 15.1463V15.7463C43.206 15.7463 43.4729 15.6217 43.6863 15.3957L43.2501 14.9838ZM42.8981 15.1463C42.8205 15.1463 42.7554 15.1246 42.6933 15.078L42.3333 15.558C42.4992 15.6825 42.6907 15.7463 42.8981 15.7463V15.1463ZM42.7108 15.0923C42.5292 14.9334 42.2965 14.7952 42.0223 14.6733L41.7786 15.2216C42.0175 15.3278 42.1933 15.4367 42.3157 15.5438L42.7108 15.0923ZM42.0306 14.6772C41.7565 14.5452 41.4679 14.439 41.1654 14.3583L41.0108 14.938C41.2783 15.0094 41.5313 15.1027 41.7703 15.2178L42.0306 14.6772ZM41.1743 14.3608C40.8668 14.2686 40.5714 14.2199 40.2899 14.2199V14.8199C40.5025 14.8199 40.7393 14.8567 41.0019 14.9355L41.1743 14.3608ZM40.2899 14.2199C39.8575 14.2199 39.4736 14.275 39.1462 14.395L39.3528 14.9583C39.5955 14.8693 39.9052 14.8199 40.2899 14.8199V14.2199ZM39.1431 14.3962C38.8308 14.5146 38.5714 14.6848 38.387 14.9183L38.8579 15.2901C38.9585 15.1627 39.1171 15.0478 39.3559 14.9572L39.1431 14.3962ZM38.387 14.9183C38.2012 15.1537 38.1086 15.4287 38.1086 15.7313H38.7086C38.7086 15.5589 38.7586 15.4159 38.8579 15.2901L38.387 14.9183ZM38.1086 15.7313C38.1086 16.0768 38.2082 16.3863 38.4223 16.6383L38.8795 16.2497C38.7706 16.1216 38.7086 15.956 38.7086 15.7313H38.1086ZM38.4331 16.6503C38.6452 16.8741 38.9322 17.043 39.2753 17.1677L39.4803 16.6038C39.1963 16.5005 38.9987 16.3748 38.8687 16.2376L38.4331 16.6503ZM39.2829 17.1704C39.612 17.2801 40.0004 17.378 40.4461 17.4652L40.5613 16.8764C40.1328 16.7926 39.7707 16.7005 39.4727 16.6012L39.2829 17.1704ZM40.4496 17.4659C41.0096 17.5686 41.4942 17.689 41.9053 17.826L42.0951 17.2568C41.651 17.1088 41.138 16.9821 40.5578 16.8757L40.4496 17.4659ZM41.9072 17.8266C42.3185 17.9607 42.6453 18.131 42.896 18.3315L43.2708 17.863C42.9513 17.6074 42.556 17.4071 42.0932 17.2562L41.9072 17.8266ZM42.9008 18.3353C43.1429 18.5209 43.3248 18.7583 43.4478 19.0535L44.0017 18.8227C43.8396 18.4338 43.594 18.1107 43.2659 17.8591L42.9008 18.3353ZM43.449 19.0563C43.5711 19.3411 43.6385 19.7068 43.6385 20.1638H44.2385C44.2385 19.6516 44.1634 19.2002 44.0005 18.8199L43.449 19.0563ZM43.6385 20.1638C43.6385 20.7223 43.4853 21.1886 43.1873 21.5776L43.6636 21.9425C44.0497 21.4384 44.2385 20.8405 44.2385 20.1638H43.6385ZM43.1873 21.5776C42.8794 21.9796 42.4713 22.291 41.9544 22.51L42.1885 23.0624C42.7929 22.8064 43.2874 22.4336 43.6636 21.9425L43.1873 21.5776ZM41.9527 22.5107C41.4419 22.7309 40.8841 22.8425 40.2757 22.8425V23.4425C40.9595 23.4425 41.5988 23.3166 42.1902 23.0617L41.9527 22.5107ZM41.0018 23.9121C41.0018 24.0813 40.947 24.2051 40.8393 24.3069L41.2513 24.7431C41.4856 24.5218 41.6018 24.2371 41.6018 23.9121H41.0018ZM40.8272 24.319C40.7255 24.4267 40.6016 24.4815 40.4325 24.4815V25.0815C40.7574 25.0815 41.0421 24.9653 41.2634 24.731L40.8272 24.319ZM40.4325 24.4815C40.2765 24.4815 40.1562 24.4294 40.052 24.319L39.6158 24.731C39.8346 24.9627 40.1133 25.0815 40.4325 25.0815V24.4815ZM40.046 24.3129C39.9456 24.2125 39.8916 24.0868 39.8916 23.9121H39.2916C39.2916 24.2316 39.3991 24.5145 39.6217 24.7371L40.046 24.3129ZM39.8916 23.9121V12.4533H39.2916V23.9121H39.8916ZM39.8916 12.4533C39.8916 12.2787 39.9456 12.153 40.046 12.0526L39.6217 11.6283C39.3991 11.851 39.2916 12.1339 39.2916 12.4533H39.8916ZM40.046 12.0526C40.1594 11.9392 40.2916 11.8839 40.461 11.8839V11.2839C40.1363 11.2839 39.8504 11.3997 39.6217 11.6283L40.046 12.0526ZM40.461 11.8839C40.63 11.8839 40.7451 11.9383 40.8353 12.0398L41.2838 11.6412C41.0699 11.4006 40.786 11.2839 40.461 11.2839V11.8839ZM40.8474 12.0526C40.9478 12.153 41.0018 12.2787 41.0018 12.4533H41.6018C41.6018 12.1339 41.4943 11.851 41.2717 11.6283L40.8474 12.0526ZM41.0018 12.4533V23.9121H41.6018V12.4533H41.0018Z" fill="#0AD0C3" mask="url(#path-5-outside-1_593_2775)"/>
</svg>
