<svg width="71" height="23" viewBox="0 0 71 23" fill="none" xmlns="http://www.w3.org/2000/svg">
<mask id="mask0_1390_2131" style="mask-type:luminance" maskUnits="userSpaceOnUse" x="0" y="0" width="71" height="23">
<path d="M36.7195 7.35299C36.679 10.5568 39.5657 12.3448 41.7404 13.4078C43.9747 14.4985 44.7252 15.1979 44.7167 16.1731C44.6996 17.666 42.9343 18.3247 41.282 18.3504C38.3995 18.3953 36.7238 17.5697 35.3913 16.9452L34.353 21.8194C35.6897 22.4375 38.165 22.9765 40.7319 23C46.757 23 50.6991 20.0165 50.7204 15.3904C50.7438 9.51953 42.6252 9.19444 42.6806 6.57021C42.6998 5.7746 43.4566 4.92552 45.1153 4.70951C45.9362 4.60043 48.2025 4.51702 50.7716 5.70402L51.78 0.988099C50.3984 0.483357 48.6225 8.02179e-08 46.4116 8.02179e-08C40.7405 8.02179e-08 36.7515 3.02418 36.7195 7.35299ZM61.4699 0.406362C60.3698 0.406362 59.4424 1.05012 59.0288 2.03822L50.4219 22.6535H56.4427L57.6409 19.3321H64.9984L65.6934 22.6535H71L66.3693 0.406362H61.4699ZM62.3121 6.41622L64.0497 14.7701H59.291L62.3121 6.41622ZM29.4195 0.406362L24.6737 22.6535H30.4109L35.1546 0.406362H29.4195ZM20.932 0.406362L14.9603 15.5486L12.5447 2.67342C12.2612 1.23619 11.1419 0.406362 9.89891 0.406362H0.13646L0 1.05226C2.00408 1.48856 4.28106 2.19221 5.66047 2.94505C6.50474 3.40488 6.74565 3.80696 7.02281 4.89985L11.5981 22.6535H17.6615L26.9571 0.406362H20.932Z" fill="white"/>
</mask>
<g mask="url(#mask0_1390_2131)">
<path d="M-7.44434 2.74644L62.5117 -23.0981L78.4264 20.2534L8.47108 46.098" fill="black"/>
</g>
</svg>
